Coordinates
version=1
nRows=22
nColumns=24
inDegrees=yes

Units are S.I. units (second, meters, Newtons, ...)
Angles are in degrees.

endheader
time	pelvis_tilt	pelvis_list	pelvis_rotation	pelvis_tx	pelvis_ty	pelvis_tz	hip_flexion_r	hip_adduction_r	hip_rotation_r	knee_angle_r	ankle_angle_r	subtalar_angle_r	mtp_angle_r	hip_flexion_l	hip_adduction_l	hip_rotation_l	knee_angle_l	ankle_angle_l	subtalar_angle_l	mtp_angle_l	lumbar_extension	lumbar_bending	lumbar_rotation
      4.21500000	     -8.17396811	      2.04046639	     -7.11136361	     -0.63333035	     -0.05067060	      0.60055789	     -8.69488345	     -1.38560170	      2.14612312	    -12.58578948	     14.61440598	      0.72777672	      3.39477490	     38.50586565	     -3.23263549	    -17.56170372	    -16.17315628	     -0.35716332	     16.96627870	     -4.37634190	      2.81342368	     -2.12530374	     12.23938745
      4.22000000	     -8.30030556	      2.44407937	     -7.25310034	     -0.62557374	     -0.05205208	      0.60023255	     -8.70735365	     -1.92234780	      2.35356066	    -13.22614480	     14.55094937	      0.77983179	      3.46224498	     38.60289776	     -2.88487275	    -17.76973561	    -16.61248234	     -1.00631588	     16.53258465	     -3.77464403	      3.07135886	     -2.58542822	     12.37164527
      4.22500000	     -8.33402873	      2.86949824	     -7.19675924	     -0.61760689	     -0.05334696	      0.59971365	     -8.85798120	     -2.48836634	      2.13111086	    -13.84596216	     14.43235679	      1.07041628	      3.57537045	     38.63301640	     -2.40214646	    -17.92072979	    -17.06389582	     -2.09590952	     16.13377675	     -1.88842083	      3.24807916	     -3.10834058	     12.22487005
      4.23000000	     -8.41182151	      3.32441764	     -7.22865520	     -0.60968356	     -0.05456721	      0.59926387	     -8.89388248	     -3.08932034	      2.07753360	    -14.55587105	     14.21164987	      1.25171860	      3.74366863	     38.72136211	     -1.95134333	    -17.96247629	    -17.62543302	     -3.09088185	     15.76074380	     -0.72918566	      3.47642076	     -3.64202282	     12.24055753
      4.23500000	     -8.47845333	      3.78731231	     -7.19679077	     -0.60171772	     -0.05574515	      0.59872650	     -8.93525032	     -3.70002056	      1.98679627	    -15.29335535	     13.94141251	      1.48536925	      3.97856764	     38.85354614	     -1.46958233	    -17.94378368	    -18.31622341	     -4.10565547	     15.43116370	      0.38571421	      3.69321423	     -4.19195829	     12.15014510
      4.24000000	     -8.57508886	      4.26886216	     -7.17274248	     -0.59372561	     -0.05684777	      0.59825704	     -8.92319852	     -4.31181694	      2.07473890	    -16.07077746	     13.55387296	      1.55095235	      4.12032804	     39.05654531	     -0.99989135	    -17.84306550	    -19.15999877	     -4.90304329	     15.26033569	      0.67475951	      3.95260135	     -4.76590715	     12.10076851
      4.24500000	     -8.62533806	      4.76379084	     -7.12981164	     -0.58578187	     -0.05785048	      0.59755193	     -8.85722499	     -4.99899666	      1.80575516	    -17.02042421	     13.15735390	      2.09267103	      4.58064024	     39.23657779	     -0.47362125	    -17.66072942	    -20.00630910	     -5.85063607	     14.72688533	      1.58370061	      4.14564082	     -5.33448357	     12.00178089
      4.25000000	     -8.67857469	      5.24094902	     -7.03006668	     -0.57777365	     -0.05876822	      0.59693457	     -8.80070298	     -5.63392505	      1.66332917	    -17.97373117	     12.59440397	      2.38407990	      5.00183876	     39.45870303	      0.03016502	    -17.47886466	    -20.97594436	     -6.63387406	     14.39758544	      2.21860184	      4.34529789	     -5.90766917	     11.86572704
      4.25500000	     -8.72970831	      5.69407922	     -6.90525597	     -0.56976213	     -0.05957810	      0.59627304	     -8.70305407	     -6.24556117	      1.53867139	    -19.01825215	     11.89789557	      2.70674272	      5.41885868	     39.69476090	      0.52085973	    -17.25610745	    -22.01490920	     -7.23754382	     14.10998399	      2.56180914	      4.53550687	     -6.45717938	     11.71913291
      4.26000000	     -8.76452861	      6.11355241	     -6.79081899	     -0.56174910	     -0.06030635	      0.59556250	     -8.54795067	     -6.85086623	      1.30950630	    -20.19033276	     11.09907571	      3.18633273	      5.99820585	     39.91861642	      0.98567370	    -17.01272339	    -23.09749091	     -7.65629136	     13.68726596	      2.84321825	      4.70319065	     -6.96268129	     11.55941440
      4.26500000	     -8.81946885	      6.52626542	     -6.64992170	     -0.55371186	     -0.06092501	      0.59488928	     -8.32763140	     -7.43667864	      1.16025469	    -21.45281316	     10.16598430	      3.62055505	      6.51141136	     40.13995264	      1.44873820	    -16.77846384	    -24.16473514	     -7.94891179	     13.35579596	      2.97436042	      4.89251220	     -7.47182136	     11.38786149
      4.27000000	     -8.85535873	      6.86961769	     -6.49995574	     -0.54571870	     -0.06145878	      0.59410226	     -8.05585498	     -7.98249403	      0.91407914	    -22.83624579	      9.12148245	      4.23110487	      7.17841547	     40.32466984	      1.87367681	    -16.52403890	    -25.23090589	     -8.06424092	     12.95535957	      3.09329730	      5.03984337	     -7.89169046	     11.21077729
      4.27500000	     -8.87357623	      7.17367271	     -6.33188886	     -0.53774969	     -0.06185441	      0.59331311	     -7.74886518	     -8.49331009	      0.68092677	    -24.30465008	      7.92488273	      4.84291816	      7.92227503	     40.44466542	      2.28290385	    -16.27972998	    -26.23645090	     -8.05932530	     12.61088005	      3.22516568	      5.15579893	     -8.27398029	     11.01560831
      4.28000000	     -8.88526770	      7.43805598	     -6.15258284	     -0.52982572	     -0.06212680	      0.59250157	     -7.38693643	     -8.97190984	      0.45937250	    -25.85989508	      6.59072359	      5.47096425	      8.70793391	     40.50489684	      2.67396662	    -16.05206230	    -27.16448329	     -7.94597907	     12.32702842	      3.41771279	      5.24958002	     -8.61348981	     10.80631516
      4.28500000	     -8.85468567	      7.70308697	     -5.96249854	     -0.52193685	     -0.06220252	      0.59167623	     -7.01906209	     -9.45887893	      0.24899319	    -27.43693402	      5.05156040	      5.86944064	     10.02217983	     40.43825060	      3.11280661	    -15.78704430	    -27.93339294	     -7.80692478	     11.96953810	      3.80186670	      5.28984880	     -8.95908923	     10.60126513
      4.29000000	     -8.86624888	      7.87168291	     -5.76587712	     -0.51417303	     -0.06224838	      0.59087262	     -6.52463719	     -9.84464196	      0.06875976	    -29.16643115	      3.51842704	      6.58605859	     10.53159796	     40.38878420	      3.42428491	    -15.66858477	    -28.70376248	     -7.48927667	     11.96582487	      4.15012065	      5.34856860	     -9.19528715	     10.36055391
      4.29500000	     -8.88466231	      8.10525940	     -5.56445865	     -0.50647649	     -0.06215385	      0.58995561	     -5.94636342	    -10.31897867	     -0.12852808	    -30.92705610	      1.86901106	      7.07634935	     11.62949448	     40.24831958	      3.87174178	    -15.42413655	    -29.23170114	     -7.28138285	     11.62278938	      4.85939238	      5.41485567	     -9.48517411	     10.15944052
      4.30000000	     -8.91993122	      8.29705355	     -5.35559712	     -0.49889672	     -0.06200218	      0.58908755	     -5.27931318	    -10.74249368	     -0.28885232	    -32.77298723	      0.23357608	      7.63813181	     12.35320452	     40.08678301	      4.25016052	    -15.32012088	    -29.72215122	     -6.93801446	     11.58991524	      5.51909256	      5.48082775	     -9.73208862	      9.92140049
      4.30500000	     -8.94548934	      8.50181585	     -5.12104633	     -0.49140393	     -0.06173512	      0.58824414	     -4.56529170	    -11.16561636	     -0.42402234	    -34.67419911	     -1.37521972	      8.11385231	     12.78744312	     39.85827602	      4.65449139	    -15.25441539	    -30.11979395	     -6.51509893	     11.71823880	      6.03346747	      5.52413310	    -10.00106050	      9.62486822
      4.31000000	     -9.00528424	      8.70487329	     -4.94191883	     -0.48413040	     -0.06140990	      0.58736097	     -3.70291791	    -11.59568034	     -0.47569038	    -36.63222260	     -2.93788563	      8.45858830	     13.59920082	     39.60662846	      5.06264430	    -15.14068460	    -30.35321788	     -6.18752330	     11.56336329	      6.95468558	      5.58965553	    -10.24072852	      9.45429906
      4.31500000	     -9.00848821	      8.92837980	     -4.70490529	     -0.47681786	     -0.06095070	      0.58658273	     -2.89198529	    -12.01050982	     -0.54426487	    -38.60338535	     -4.41424327	      8.59319388	     13.83228572	     39.24640333	      5.50085231	    -15.11040710	    -30.55951235	     -5.64069680	     11.78630972	      7.35875967	      5.59626957	    -10.53511582	      9.14666082
      4.32000000	     -9.14310236	      9.20125483	     -4.54328730	     -0.46976190	     -0.06052931	      0.58574705	     -1.80241733	    -12.47583368	     -0.42756177	    -40.65415115	     -5.72637473	      8.76844048	     14.40014202	     38.99233871	      5.94590623	    -15.13000727	    -30.62920990	     -5.28796655	     11.76960122	      8.04165387	      5.73856118	    -10.83295837	      8.93997923
